<svg width="33" height="33" viewBox="0 0 33 33" fill="none" xmlns="http://www.w3.org/2000/svg">
<path d="M16.4996 31.4234C17.0771 31.4101 17.6312 31.193 18.064 30.8105C18.4968 30.428 18.7804 29.9048 18.8646 29.3334H14.043C14.1296 29.9203 14.4264 30.4558 14.8783 30.8403C15.3302 31.2247 15.9064 31.4319 16.4996 31.4234Z" fill="black"/>
<path d="M30.1126 25.7858L29.8009 25.5108C28.9167 24.723 28.1428 23.8196 27.5001 22.825C26.7981 21.4523 26.3774 19.9533 26.2626 18.4158V13.8875C26.2588 13.3374 26.2098 12.7886 26.1159 12.2467C24.5632 11.9275 23.1684 11.0816 22.1678 9.85212C21.1672 8.62265 20.6222 7.08518 20.6251 5.49999V4.92249C19.668 4.4515 18.6397 4.14178 17.5817 4.00582V2.85083C17.5817 2.52627 17.4528 2.215 17.2233 1.9855C16.9938 1.75601 16.6825 1.62708 16.358 1.62708C16.0334 1.62708 15.7222 1.75601 15.4927 1.9855C15.2632 2.215 15.1342 2.52627 15.1342 2.85083V4.05166C12.7653 4.38583 10.5973 5.56576 9.03035 7.3736C7.46344 9.18144 6.60348 11.4951 6.60923 13.8875V18.4158C6.49442 19.9533 6.07369 21.4523 5.37173 22.825C4.74004 23.8171 3.97858 24.7204 3.10757 25.5108L2.7959 25.7858V28.3708H30.1126V25.7858Z" fill="black"/>
<path d="M27.5003 10.0833C30.0316 10.0833 32.0837 8.03126 32.0837 5.49996C32.0837 2.96865 30.0316 0.916626 27.5003 0.916626C24.969 0.916626 22.917 2.96865 22.917 5.49996C22.917 8.03126 24.969 10.0833 27.5003 10.0833Z" fill="black"/>
</svg>
